<?xml version="1.0" standalone="no"?>
<!DOCTYPE svg PUBLIC "-//W3C//DTD SVG 20010904//EN"
 "http://www.w3.org/TR/2001/REC-SVG-20010904/DTD/svg10.dtd">
<svg version="1.0" xmlns="http://www.w3.org/2000/svg"
 width="157.000000pt" height="77.000000pt" viewBox="0 0 157.000000 77.000000"
 preserveAspectRatio="xMidYMid meet">

<g transform="translate(0.000000,77.000000) scale(0.100000,-0.100000)"
fill="#000000" stroke="none">
<path d="M930 427 c-35 -17 -76 -43 -92 -59 -16 -15 -30 -29 -31 -30 -1 -1
-90 -5 -197 -8 l-195 -6 198 -2 197 -2 43 38 c23 21 65 48 93 61 l51 23 54
-27 c30 -15 75 -43 100 -61 l47 -34 173 0 c96 0 181 5 189 10 10 6 -48 10
-174 10 l-189 0 -51 38 c-28 21 -74 47 -102 59 l-51 21 -63 -31z"/>
<path d="M920 331 c-30 -16 -68 -42 -85 -57 l-30 -29 -195 -5 -195 -6 197 -2
198 -2 37 34 c46 40 114 76 145 76 31 0 115 -41 162 -79 l39 -31 176 0 c97 0
183 5 191 10 10 6 -50 10 -178 10 l-194 0 -42 34 c-44 36 -126 76 -154 76 -9
-1 -42 -14 -72 -29z"/>
</g>
</svg>
